<?xml version="1.0" standalone="no"?>
<!DOCTYPE svg PUBLIC "-//W3C//DTD SVG 20010904//EN"
 "http://www.w3.org/TR/2001/REC-SVG-20010904/DTD/svg10.dtd">
<svg version="1.0" xmlns="http://www.w3.org/2000/svg"
 width="585.000000pt" height="97.000000pt" viewBox="0 0 585.000000 97.000000"
 preserveAspectRatio="xMidYMid meet">

<g transform="translate(0.000000,97.000000) scale(0.100000,-0.100000)"
fill="#000000" stroke="none">
<path d="M1880 910 c0 -53 2 -60 20 -60 18 0 20 7 20 60 0 53 -2 60 -20 60
-18 0 -20 -7 -20 -60z"/>
<path d="M5100 835 l0 -137 -39 35 c-109 98 -286 65 -352 -66 -27 -51 -37
-214 -20 -299 25 -116 104 -182 221 -182 70 0 115 17 163 62 l27 26 0 -42 c0
-35 3 -42 20 -42 20 0 20 5 18 387 -3 360 -4 388 -20 391 -16 3 -18 -8 -18
-133z m-137 -96 c50 -14 103 -61 119 -107 7 -22 12 -83 12 -152 0 -132 -14
-174 -72 -218 -31 -24 -44 -27 -112 -27 -68 0 -81 3 -112 27 -58 44 -72 86
-72 218 0 68 5 130 12 151 16 45 59 87 108 104 48 17 68 18 117 4z"/>
<path d="M5257 963 c-4 -3 -7 -30 -7 -60 0 -46 3 -53 20 -53 18 0 20 7 20 60
0 43 -4 60 -13 60 -8 0 -17 -3 -20 -7z"/>
<path d="M145 783 c-102 -25 -150 -114 -111 -207 22 -54 71 -77 186 -86 55 -5
108 -14 119 -20 40 -21 61 -60 61 -114 0 -94 -46 -126 -180 -126 -45 0 -91 5
-103 11 -38 20 -66 51 -72 80 -5 20 -13 29 -26 29 -37 0 -11 -79 40 -122 71
-60 255 -61 329 -1 66 54 78 170 25 234 -38 45 -78 60 -178 69 -114 10 -150
27 -166 79 -14 46 0 83 44 115 23 17 43 21 105 20 91 0 131 -16 152 -61 19
-40 50 -45 50 -7 0 35 -55 89 -105 103 -40 11 -132 13 -170 4z"/>
<path d="M1092 777 c-96 -35 -141 -110 -149 -250 -10 -169 24 -261 113 -313
115 -68 302 -10 338 104 12 38 -23 26 -65 -22 -47 -54 -90 -70 -173 -64 -110
7 -165 72 -166 196 l0 62 205 0 205 0 0 48 c0 27 -7 71 -15 99 -34 116 -174
183 -293 140z m130 -37 c44 -13 93 -52 112 -89 7 -14 17 -47 20 -73 l7 -48
-185 0 -186 0 0 41 c0 76 45 139 117 164 47 17 67 18 115 5z"/>
<path d="M1633 771 c-24 -11 -54 -31 -68 -45 l-25 -25 0 39 c0 33 -3 40 -20
40 -20 0 -20 -7 -20 -295 0 -288 0 -295 20 -295 19 0 20 7 20 191 0 217 8 264
55 312 38 39 114 63 165 52 29 -6 31 -5 28 17 -3 21 -9 23 -58 26 -38 1 -68
-4 -97 -17z"/>
<path d="M2176 775 c-57 -20 -114 -80 -131 -139 -18 -59 -20 -228 -4 -290 24
-97 110 -159 220 -160 53 0 74 5 112 27 25 15 51 35 57 45 9 13 10 2 7 -46 -9
-108 -72 -166 -182 -166 -62 0 -109 17 -152 56 -11 11 -31 18 -43 16 l-22 -3
22 -28 c53 -67 174 -103 266 -78 53 14 117 71 140 123 16 38 19 80 22 346 l4
304 -24 -4 c-18 -2 -24 -10 -26 -35 l-3 -33 -37 29 c-66 51 -147 64 -226 36z
m147 -39 c91 -33 116 -87 117 -251 0 -106 -3 -126 -22 -165 -34 -66 -84 -92
-170 -88 -140 7 -191 100 -175 313 8 107 44 162 124 190 48 18 78 18 126 1z"/>
<path d="M2729 777 c-52 -19 -94 -52 -118 -91 -40 -64 -50 -256 -19 -356 16
-51 47 -88 98 -118 61 -36 162 -37 233 -3 47 23 107 89 107 118 0 25 -35 13
-57 -21 -34 -52 -99 -79 -181 -74 -51 3 -75 9 -100 28 -47 35 -72 94 -72 168
l0 62 206 0 207 0 -5 73 c-7 100 -45 164 -122 204 -41 21 -133 26 -177 10z
m126 -38 c73 -20 135 -106 135 -186 l0 -23 -185 0 -185 0 0 37 c0 77 60 156
134 173 45 11 57 11 101 -1z"/>
<path d="M4291 778 c-64 -18 -111 -66 -111 -113 0 -28 37 -17 50 15 16 39 54
59 127 66 76 8 135 -8 167 -47 22 -26 26 -40 26 -99 l0 -68 -142 -4 c-120 -2
-149 -6 -182 -24 -52 -27 -76 -73 -76 -148 0 -75 27 -121 84 -146 100 -44 205
-34 275 27 l41 35 0 -41 c0 -35 3 -41 20 -41 21 0 21 4 18 254 l-3 254 -25 28
c-54 58 -171 81 -269 52z m259 -335 c0 -65 -16 -116 -47 -153 -38 -46 -74 -60
-148 -60 -114 0 -165 41 -165 130 0 103 46 128 238 129 l122 1 0 -47z"/>
<path d="M5545 779 c-43 -12 -102 -65 -126 -112 -27 -51 -37 -214 -20 -299 25
-116 104 -182 221 -182 97 0 161 39 206 124 16 29 19 58 19 175 0 125 -2 144
-22 181 -54 101 -165 146 -278 113z m128 -40 c50 -14 103 -61 119 -107 7 -22
12 -83 12 -152 0 -132 -14 -174 -72 -218 -31 -24 -44 -27 -111 -27 -90 0 -128
21 -163 88 -19 36 -22 59 -22 157 0 67 5 130 12 151 16 45 59 87 108 104 48
17 68 18 117 4z"/>
<path d="M470 773 c0 -5 42 -136 94 -293 l93 -285 36 -3 35 -3 96 288 c53 158
96 292 96 296 0 5 -10 7 -22 5 -19 -3 -32 -35 -108 -263 -48 -143 -89 -267
-92 -275 -2 -8 -46 110 -97 263 -78 234 -96 277 -112 277 -10 0 -19 -3 -19 -7z"/>
<path d="M1880 485 c0 -288 0 -295 20 -295 20 0 20 7 20 295 0 288 0 295 -20
295 -20 0 -20 -7 -20 -295z"/>
<path d="M3166 759 c-54 -43 -72 -122 -42 -194 22 -53 67 -75 153 -75 l72 0
-24 24 c-43 43 -46 182 -5 239 l21 27 -74 0 c-60 0 -79 -4 -101 -21z"/>
<path d="M3492 658 c57 -67 111 -131 120 -143 17 -19 17 -13 18 123 l0 142
-121 0 -120 0 103 -122z"/>
<path d="M3825 769 c37 -10 73 -42 86 -76 15 -41 11 -126 -10 -166 l-19 -37
62 0 c74 0 121 25 142 75 30 72 7 151 -55 192 -30 20 -46 23 -135 22 -76 -1
-93 -3 -71 -10z"/>
<path d="M5250 485 c0 -288 0 -295 20 -295 20 0 20 7 20 295 0 288 0 295 -20
295 -20 0 -20 -7 -20 -295z"/>
<path d="M3429 462 c19 -19 30 -43 35 -75 11 -72 -2 -137 -35 -169 l-27 -28
64 0 c74 0 118 16 154 55 22 23 25 36 25 95 0 59 -3 72 -25 95 -36 39 -80 55
-154 55 l-64 0 27 -28z"/>
<path d="M3647 476 c4 -7 60 -75 123 -150 l115 -136 114 0 c107 0 113 1 100
18 -8 9 -67 77 -133 150 l-118 132 -105 0 c-85 0 -103 -3 -96 -14z"/>
<path d="M3120 321 l0 -131 126 0 126 0 -111 119 c-61 65 -118 124 -126 131
-13 11 -15 -3 -15 -119z"/>
</g>
</svg>
